<svg id="svg" version="1.1" xmlns="http://www.w3.org/2000/svg" xmlns:xlink="http://www.w3.org/1999/xlink" width="400" height="400" viewBox="0, 0, 400,400"><g id="svgg"><path id="path0" d="M189.000 46.824 C 188.120 47.005,186.140 47.333,184.600 47.555 C 183.060 47.776,180.609 48.147,179.154 48.379 C 177.699 48.610,175.867 48.800,175.084 48.800 C 174.302 48.800,172.702 48.992,171.531 49.226 C 170.359 49.460,168.410 49.847,167.200 50.086 C 165.134 50.493,162.287 51.195,159.300 52.035 C 158.585 52.236,157.415 52.562,156.700 52.759 C 153.015 53.778,142.517 57.633,138.600 59.405 C 137.940 59.704,136.140 60.508,134.600 61.192 C 133.060 61.875,131.136 62.967,130.323 63.617 C 129.511 64.268,128.592 64.800,128.280 64.800 C 127.968 64.800,126.922 65.489,125.956 66.330 C 124.160 67.895,119.439 71.200,119.000 71.200 C 117.920 71.200,111.209 76.825,111.191 77.746 C 111.186 77.996,109.548 79.820,107.550 81.800 C 105.553 83.780,103.100 86.631,102.100 88.136 C 101.099 89.640,99.864 91.061,99.355 91.293 C 96.026 92.810,93.232 101.600,96.078 101.600 C 96.755 101.600,99.200 98.472,99.200 97.606 C 99.200 97.167,101.564 93.595,103.175 91.600 C 103.619 91.050,103.986 90.388,103.991 90.129 C 103.996 89.870,104.465 89.292,105.033 88.846 C 105.601 88.399,106.102 87.786,106.147 87.484 C 106.258 86.725,115.640 77.440,117.493 76.254 C 118.322 75.724,119.529 74.730,120.175 74.045 C 120.821 73.360,121.522 72.800,121.732 72.800 C 121.942 72.800,123.254 72.080,124.647 71.200 C 126.040 70.320,127.427 69.600,127.728 69.600 C 128.029 69.600,128.619 69.221,129.038 68.757 C 130.550 67.084,140.660 61.600,142.231 61.600 C 142.626 61.600,143.320 61.255,143.774 60.834 C 145.307 59.413,149.011 57.626,149.927 57.865 C 150.418 57.993,151.230 57.810,151.785 57.446 C 152.328 57.091,153.161 56.800,153.638 56.800 C 154.114 56.800,155.751 56.350,157.275 55.800 C 158.823 55.242,160.922 54.800,162.026 54.800 C 163.639 54.800,164.166 54.615,164.875 53.800 C 165.606 52.959,166.098 52.799,167.972 52.794 C 169.197 52.791,171.010 52.492,172.000 52.129 C 172.990 51.766,174.790 51.332,176.000 51.165 C 177.210 50.997,179.550 50.659,181.200 50.413 C 182.850 50.168,185.100 49.857,186.200 49.723 C 187.300 49.589,188.396 49.212,188.635 48.885 C 189.306 47.966,192.231 48.125,193.626 49.156 C 194.911 50.106,204.694 50.074,206.679 49.113 C 207.637 48.649,211.114 49.163,214.383 50.253 C 215.727 50.700,217.037 50.779,219.694 50.571 C 222.775 50.330,223.322 50.386,224.019 51.017 C 224.584 51.529,225.545 51.761,227.309 51.812 C 229.616 51.879,232.268 52.410,234.200 53.192 C 234.640 53.370,236.080 53.736,237.400 54.004 C 238.720 54.272,240.340 54.631,241.000 54.800 C 241.660 54.969,243.280 55.335,244.600 55.612 C 247.971 56.320,252.000 57.610,252.000 57.982 C 252.000 58.154,253.125 58.608,254.500 58.991 C 255.875 59.373,257.450 59.925,258.000 60.217 C 258.550 60.509,259.810 61.071,260.800 61.466 C 262.241 62.040,267.965 64.860,274.600 68.263 C 277.350 69.674,279.091 70.402,279.713 70.401 C 280.104 70.400,280.527 70.665,280.651 70.990 C 280.776 71.314,281.895 72.073,283.139 72.678 C 288.094 75.085,293.023 78.392,297.063 82.021 C 298.198 83.040,299.728 84.163,300.463 84.517 C 302.169 85.338,313.545 96.479,316.604 100.324 C 319.012 103.353,320.199 104.937,324.098 110.323 C 325.361 112.069,326.670 113.726,327.005 114.004 C 327.340 114.282,327.911 115.160,328.274 115.955 C 331.427 122.864,333.023 125.937,334.210 127.386 C 334.975 128.319,335.606 129.334,335.612 129.641 C 335.619 129.949,336.068 130.920,336.610 131.800 C 337.152 132.680,337.597 133.748,337.598 134.174 C 337.599 134.600,337.931 135.320,338.336 135.774 C 339.048 136.573,340.800 141.592,340.800 142.834 C 340.800 143.170,341.430 145.007,342.200 146.916 C 342.970 148.826,343.600 150.858,343.600 151.432 C 343.600 152.007,343.852 152.954,344.159 153.538 C 345.048 155.227,346.144 159.720,347.003 165.200 C 347.331 167.290,347.789 169.990,348.021 171.200 C 348.451 173.439,349.039 177.154,349.477 180.400 C 349.611 181.390,349.942 182.560,350.212 183.000 C 350.951 184.205,351.245 186.369,350.786 187.227 C 350.399 187.950,349.834 206.552,349.973 214.000 C 350.008 215.870,349.829 218.390,349.575 219.600 C 349.320 220.810,348.964 222.520,348.783 223.400 C 348.601 224.280,348.076 226.793,347.616 228.985 C 347.156 231.176,346.871 233.208,346.983 233.500 C 347.095 233.793,347.023 234.340,346.822 234.716 C 345.836 236.565,344.800 239.122,344.800 239.707 C 344.800 240.068,344.639 240.776,344.442 241.281 C 344.245 241.787,343.887 242.920,343.647 243.800 C 343.408 244.680,342.849 246.555,342.406 247.966 C 341.963 249.377,341.600 250.969,341.600 251.503 C 341.600 252.037,341.240 252.931,340.800 253.491 C 340.360 254.050,340.000 254.730,340.000 255.001 C 340.000 255.797,336.277 263.114,333.997 266.800 C 332.840 268.670,331.538 270.830,331.104 271.600 C 330.670 272.370,330.166 273.184,329.984 273.409 C 329.802 273.634,329.125 274.804,328.480 276.009 C 325.763 281.086,325.333 281.786,323.975 283.354 C 323.192 284.259,321.458 286.440,320.124 288.200 C 317.598 291.529,314.049 295.595,311.566 298.000 C 307.583 301.859,298.091 310.363,296.268 311.704 C 294.495 313.009,291.366 315.599,289.848 317.018 C 288.987 317.822,281.303 323.200,281.015 323.200 C 280.854 323.200,280.246 323.539,279.662 323.954 C 275.234 327.098,262.277 333.186,252.200 336.858 C 250.440 337.499,248.052 338.653,246.893 339.421 C 245.555 340.308,244.096 340.902,242.893 341.051 C 241.852 341.180,239.830 341.645,238.400 342.084 C 232.292 343.962,228.900 344.768,221.800 346.030 C 220.480 346.265,219.040 346.538,218.600 346.638 C 212.996 347.906,187.819 348.668,180.000 347.805 C 178.790 347.671,176.292 347.393,174.448 347.187 C 172.605 346.980,169.995 346.549,168.648 346.228 C 167.302 345.907,165.390 345.525,164.400 345.380 C 163.410 345.234,161.354 344.684,159.830 344.157 C 158.307 343.631,156.484 343.200,155.779 343.200 C 155.074 343.200,153.801 342.906,152.949 342.547 C 152.097 342.188,150.140 341.571,148.600 341.177 C 144.515 340.131,143.205 339.695,142.238 339.062 C 141.763 338.751,139.670 337.912,137.587 337.198 C 133.029 335.635,126.431 332.875,125.600 332.183 C 125.270 331.908,123.470 330.955,121.600 330.064 C 117.136 327.939,113.269 325.731,110.977 324.000 C 109.957 323.230,107.634 321.520,105.814 320.200 C 103.994 318.880,101.825 317.260,100.993 316.600 C 94.821 311.702,93.161 310.487,91.502 309.650 C 89.819 308.800,86.400 305.146,86.400 304.197 C 86.400 304.015,86.125 303.582,85.790 303.234 C 79.660 296.871,77.268 294.223,76.005 292.400 C 75.166 291.190,74.097 289.797,73.629 289.305 C 70.701 286.225,67.302 281.023,66.464 278.340 C 65.972 276.765,65.058 274.830,64.432 274.038 C 62.867 272.059,60.990 268.813,60.667 267.525 C 60.520 266.937,59.814 265.835,59.099 265.076 C 58.273 264.198,57.529 262.770,57.056 261.148 C 56.646 259.747,55.859 257.610,55.306 256.400 C 54.753 255.190,54.319 253.660,54.343 253.000 C 54.366 252.340,54.230 251.440,54.040 251.000 C 53.851 250.560,53.294 248.850,52.804 247.200 C 52.314 245.550,51.752 243.787,51.556 243.281 C 51.360 242.776,51.200 241.841,51.200 241.205 C 51.200 240.568,51.020 239.936,50.800 239.800 C 50.580 239.664,50.400 238.999,50.400 238.323 C 50.400 237.646,50.236 236.442,50.035 235.646 C 48.894 231.129,48.639 229.400,48.552 225.600 C 48.499 223.290,48.271 219.150,48.044 216.400 C 47.452 209.223,47.421 202.968,47.962 200.200 C 48.638 196.749,49.117 193.722,49.388 191.200 C 49.836 187.016,50.498 183.391,51.214 181.200 C 52.640 176.838,54.400 170.954,54.400 170.552 C 54.400 170.326,54.909 169.075,55.531 167.771 C 56.153 166.467,57.261 163.870,57.992 162.000 C 58.724 160.130,59.475 158.429,59.661 158.220 C 60.174 157.645,60.067 156.800,59.482 156.800 C 58.700 156.800,56.003 160.548,55.541 162.278 C 55.317 163.115,54.708 164.430,54.187 165.200 C 53.667 165.970,53.061 167.320,52.840 168.200 C 52.620 169.080,52.056 170.871,51.588 172.180 C 51.120 173.489,50.402 176.459,49.994 178.780 C 49.586 181.101,49.050 183.810,48.804 184.800 C 47.067 191.784,46.499 196.375,45.883 208.400 C 45.520 215.484,45.438 220.753,45.653 223.200 C 45.837 225.290,46.056 228.710,46.140 230.800 C 46.284 234.361,46.634 235.993,49.015 244.200 C 50.110 247.976,51.200 252.832,51.200 253.934 C 51.200 255.324,54.420 261.628,56.179 263.684 C 57.581 265.321,58.147 267.074,57.766 268.593 C 57.633 269.122,57.862 270.159,58.308 271.054 C 60.345 275.136,62.565 279.080,63.246 279.826 C 63.661 280.280,64.000 280.828,64.000 281.043 C 64.000 281.258,64.900 282.499,66.000 283.800 C 67.100 285.101,68.000 286.505,68.000 286.920 C 68.000 287.334,68.360 288.131,68.800 288.691 C 69.240 289.250,69.600 289.961,69.600 290.269 C 69.600 291.721,75.824 300.000,76.915 300.000 C 77.687 300.000,80.000 302.981,80.000 303.977 C 80.000 304.429,80.736 305.475,81.635 306.300 C 82.534 307.125,84.061 308.565,85.028 309.500 C 85.995 310.435,86.941 311.200,87.130 311.200 C 87.318 311.200,88.176 311.875,89.036 312.700 C 89.896 313.525,91.230 314.495,92.000 314.856 C 92.770 315.217,94.818 316.837,96.551 318.456 C 98.283 320.075,100.116 321.659,100.624 321.976 C 101.131 322.294,101.765 322.960,102.031 323.458 C 102.723 324.751,106.604 327.240,107.484 326.956 C 108.079 326.764,108.099 326.796,107.602 327.146 C 107.085 327.511,107.112 327.650,107.802 328.171 C 108.724 328.868,109.600 328.980,109.600 328.400 C 109.600 328.180,109.330 328.000,109.000 328.000 C 108.670 328.000,108.400 327.820,108.400 327.600 C 108.400 326.644,112.853 329.225,113.528 330.572 C 114.308 332.128,120.589 335.611,125.814 337.384 C 128.497 338.295,130.290 339.142,132.200 340.403 C 133.080 340.984,134.880 341.771,136.200 342.153 C 137.520 342.535,139.230 343.132,140.000 343.480 C 142.782 344.738,145.410 345.600,146.464 345.600 C 148.519 345.600,151.646 346.539,152.040 347.275 C 152.253 347.674,152.809 348.000,153.274 348.000 C 153.739 348.000,155.488 348.272,157.160 348.604 C 158.832 348.936,161.550 349.374,163.200 349.577 C 164.850 349.781,167.010 350.138,168.000 350.371 C 168.990 350.604,171.240 350.989,173.000 351.228 C 174.760 351.467,177.460 351.838,179.000 352.054 C 184.844 352.871,196.398 353.118,199.370 352.490 C 201.933 351.948,202.178 351.956,202.645 352.594 C 203.063 353.165,203.552 353.243,205.475 353.043 C 206.754 352.910,208.880 352.776,210.200 352.746 C 213.129 352.678,221.707 351.044,226.500 349.639 C 228.089 349.174,229.034 348.899,233.200 347.688 C 234.630 347.272,236.340 346.705,237.000 346.427 C 237.660 346.150,239.550 345.777,241.200 345.600 C 245.243 345.165,246.479 344.799,250.641 342.808 C 252.598 341.872,255.847 340.317,257.861 339.353 C 259.874 338.389,261.838 337.600,262.224 337.600 C 263.197 337.600,268.782 334.797,269.996 333.700 C 270.544 333.205,271.132 332.800,271.303 332.800 C 271.474 332.800,273.065 331.900,274.839 330.800 C 276.612 329.700,278.404 328.800,278.820 328.800 C 279.671 328.800,280.596 328.305,286.000 324.955 C 288.090 323.660,290.270 322.358,290.845 322.062 C 294.014 320.430,309.600 307.217,309.600 306.163 C 309.600 305.907,309.889 305.458,310.242 305.165 C 310.595 304.873,311.047 304.203,311.246 303.678 C 311.446 303.152,311.957 302.632,312.382 302.521 C 312.807 302.409,313.210 301.936,313.278 301.469 C 313.345 301.002,313.804 300.420,314.297 300.175 C 314.791 299.929,315.511 299.460,315.897 299.132 C 316.284 298.804,317.473 298.037,318.540 297.427 C 319.999 296.594,320.676 295.879,321.264 294.549 C 321.695 293.575,323.000 291.748,324.164 290.489 C 325.329 289.230,326.814 287.570,327.465 286.800 C 329.098 284.868,333.002 278.556,334.039 276.170 C 334.510 275.087,335.222 273.840,335.622 273.400 C 336.666 272.249,339.292 266.787,341.635 260.894 C 342.749 258.092,344.289 254.360,345.058 252.600 C 346.979 248.202,347.043 248.036,347.606 246.000 C 347.880 245.010,348.379 243.573,348.715 242.806 C 349.811 240.307,350.510 236.925,351.189 230.839 C 351.395 228.990,352.002 226.200,352.538 224.639 C 354.725 218.267,355.338 213.255,355.043 204.171 C 354.593 190.344,354.031 179.034,353.654 176.200 C 352.812 169.873,352.360 167.434,351.937 166.924 C 351.345 166.211,350.791 163.683,350.420 160.000 C 350.042 156.254,349.076 152.791,348.239 152.179 C 347.888 151.922,347.434 150.832,347.230 149.756 C 346.868 147.850,345.905 144.612,345.220 143.000 C 345.033 142.560,344.502 141.347,344.040 140.304 C 343.578 139.262,343.200 138.335,343.200 138.244 C 343.200 138.154,342.501 136.577,341.646 134.740 C 340.792 132.903,339.792 130.500,339.424 129.400 C 339.057 128.300,338.346 126.770,337.846 126.000 C 337.345 125.230,336.097 122.890,335.072 120.800 C 332.951 116.474,328.585 109.488,327.072 108.000 C 326.512 107.450,325.233 106.237,324.227 105.305 C 323.222 104.373,322.400 103.325,322.400 102.976 C 322.400 101.160,307.215 84.828,302.489 81.560 C 301.407 80.812,299.152 79.255,297.479 78.100 C 295.805 76.945,294.270 76.000,294.067 76.000 C 293.864 76.000,293.452 75.704,293.152 75.342 C 292.852 74.980,291.517 74.180,290.186 73.564 C 288.854 72.948,287.082 71.901,286.247 71.238 C 285.413 70.574,284.341 69.914,283.865 69.771 C 283.389 69.627,282.550 69.092,282.000 68.581 C 281.450 68.070,280.111 67.352,279.024 66.984 C 277.937 66.617,275.867 65.539,274.424 64.590 C 272.981 63.640,271.260 62.732,270.600 62.573 C 269.940 62.414,268.942 61.964,268.382 61.573 C 267.822 61.182,266.337 60.408,265.082 59.853 C 263.827 59.298,262.800 58.657,262.800 58.427 C 262.800 57.771,260.019 56.780,258.938 57.051 C 258.323 57.206,257.781 57.086,257.480 56.730 C 257.216 56.418,256.280 55.929,255.400 55.644 C 253.600 55.060,249.218 53.389,247.400 52.593 C 246.740 52.304,245.660 51.973,245.000 51.858 C 244.340 51.743,243.277 51.521,242.637 51.366 C 241.769 51.154,241.348 51.257,240.973 51.769 C 240.505 52.410,240.320 52.387,238.224 51.428 C 236.988 50.863,235.835 50.400,235.663 50.400 C 235.491 50.400,234.641 50.070,233.775 49.666 C 230.779 48.270,222.305 47.370,209.311 47.069 C 206.622 47.006,204.297 46.830,204.144 46.678 C 203.762 46.295,190.975 46.419,189.000 46.824 M147.280 78.880 C 146.515 79.645,146.724 80.054,147.600 79.507 C 148.408 79.002,148.669 78.400,148.080 78.400 C 147.904 78.400,147.544 78.616,147.280 78.880 M136.600 84.245 C 135.720 84.789,134.685 85.337,134.300 85.464 C 133.915 85.590,133.600 85.867,133.600 86.080 C 133.600 86.293,133.825 86.362,134.100 86.234 C 134.375 86.105,134.915 85.889,135.300 85.754 C 135.685 85.618,136.000 85.376,136.000 85.217 C 136.000 85.058,136.720 84.690,137.600 84.400 C 138.480 84.110,139.200 83.721,139.200 83.536 C 139.200 82.961,138.264 83.216,136.600 84.245 M124.900 89.670 C 123.658 90.438,123.191 91.200,123.962 91.200 C 124.571 91.200,127.600 89.473,127.600 89.126 C 127.600 88.562,126.252 88.834,124.900 89.670 M117.000 93.994 C 114.800 95.498,112.719 97.240,112.375 97.864 C 111.951 98.636,111.146 99.203,109.863 99.635 C 108.824 99.984,107.035 101.066,105.887 102.039 C 104.739 103.012,102.450 104.886,100.800 106.203 C 99.150 107.520,97.656 108.824,97.480 109.099 C 97.304 109.375,96.963 109.600,96.722 109.600 C 96.480 109.600,95.429 110.365,94.386 111.300 C 93.342 112.235,91.101 114.080,89.404 115.400 C 87.708 116.720,85.945 118.340,85.486 119.000 C 85.027 119.660,82.836 122.180,80.616 124.600 C 74.223 131.569,71.200 135.060,71.200 135.474 C 71.200 136.259,67.506 141.600,66.963 141.600 C 66.653 141.600,66.400 141.829,66.400 142.109 C 66.400 142.389,65.855 143.279,65.189 144.087 C 64.155 145.341,59.600 153.575,59.600 154.190 C 59.600 154.651,61.602 154.366,61.631 153.900 C 61.666 153.355,62.867 151.418,65.479 147.697 C 66.403 146.382,67.274 144.787,67.416 144.153 C 67.918 141.910,68.048 141.639,68.720 141.419 C 69.439 141.184,71.200 138.726,71.200 137.959 C 71.200 137.365,75.110 132.240,77.119 130.200 C 77.985 129.320,79.901 127.440,81.377 126.023 C 82.852 124.605,84.298 122.985,84.589 122.423 C 85.401 120.857,89.994 116.000,90.663 116.000 C 91.299 116.000,93.843 114.316,95.800 112.600 C 97.256 111.324,102.330 106.766,102.952 106.175 C 103.198 105.941,105.110 104.605,107.200 103.205 C 109.290 101.805,112.779 99.207,114.954 97.430 C 117.129 95.654,119.597 93.660,120.439 93.000 C 121.281 92.340,121.977 91.665,121.985 91.500 C 122.020 90.793,120.759 91.424,117.000 93.994 M207.347 93.451 C 204.043 94.195,200.784 99.970,200.814 105.028 C 200.913 121.487,219.102 132.385,224.135 119.000 C 225.737 114.738,225.837 110.361,224.419 106.600 C 220.764 96.910,214.255 91.897,207.347 93.451 M236.976 105.550 C 230.809 109.310,229.257 118.967,233.393 127.832 C 239.180 140.237,252.812 136.034,252.796 121.850 C 252.782 110.672,243.783 101.399,236.976 105.550 M179.200 111.342 C 172.241 114.896,174.050 126.784,182.612 133.758 C 190.773 140.406,200.541 139.784,202.730 132.477 C 206.135 121.110,189.439 106.112,179.200 111.342 M220.266 138.579 C 210.878 142.439,206.298 150.618,206.274 163.567 C 206.260 170.820,206.424 172.019,208.287 178.288 C 211.516 189.155,220.516 189.981,228.057 180.102 C 236.163 169.481,237.859 168.474,251.800 166.001 C 261.372 164.303,264.528 156.546,258.220 150.224 C 254.140 146.134,244.243 140.953,236.400 138.801 C 235.410 138.529,234.078 138.148,233.440 137.953 C 230.852 137.165,222.772 137.548,220.266 138.579 M179.223 143.866 C 174.949 144.784,172.127 150.026,173.581 154.345 C 177.453 165.838,193.044 172.276,199.434 165.021 C 206.834 156.619,192.023 141.117,179.223 143.866 M171.129 219.061 C 164.570 220.205,162.450 232.007,167.092 241.541 C 171.280 250.144,181.703 253.429,186.103 247.534 C 194.093 236.831,183.603 216.885,171.129 219.061 M200.957 231.011 C 196.278 233.063,193.290 241.285,194.806 247.937 C 198.759 265.286,216.100 265.013,216.179 247.600 C 216.201 242.850,216.072 242.262,214.081 238.013 C 211.345 232.175,205.460 229.035,200.957 231.011 M142.963 236.785 C 139.955 238.124,138.400 241.002,138.400 245.230 C 138.400 248.602,139.092 250.563,141.638 254.400 C 147.394 263.076,159.208 266.940,164.054 261.733 C 173.152 251.958,155.578 231.171,142.963 236.785 M183.957 264.142 C 178.128 266.539,173.734 271.238,171.181 277.800 C 167.835 286.405,169.900 304.621,174.792 309.653 C 179.782 314.786,185.721 313.292,191.824 305.369 C 198.841 296.261,202.431 293.840,211.000 292.435 C 221.471 290.718,224.800 288.391,224.800 282.789 C 224.800 272.297,196.045 259.169,183.957 264.142 M143.043 269.492 C 141.279 269.755,138.864 271.548,137.777 273.404 C 133.372 280.920,144.094 293.617,154.828 293.596 C 165.595 293.574,168.228 284.259,159.965 275.426 C 155.600 270.760,149.321 268.558,143.043 269.492 M158.988 366.487 C 158.875 366.783,158.831 370.439,158.891 374.612 L 159.000 382.200 163.200 382.200 L 167.400 382.200 167.400 381.200 C 167.400 380.269,167.247 380.191,165.200 380.077 C 162.192 379.909,162.225 379.985,162.000 372.681 L 161.800 366.200 160.497 366.074 C 159.679 365.996,159.118 366.149,158.988 366.487 M179.130 366.900 C 178.706 367.667,177.214 371.636,176.010 375.200 C 175.825 375.750,175.206 377.459,174.636 378.998 C 173.315 382.565,173.296 382.468,175.300 382.323 C 176.850 382.211,177.040 382.076,177.452 380.800 L 177.905 379.400 181.200 379.400 L 184.495 379.400 184.948 380.800 C 185.360 382.076,185.550 382.211,187.100 382.323 C 189.103 382.468,189.084 382.566,187.768 378.998 C 187.200 377.459,186.403 375.210,185.995 374.000 C 184.472 369.479,183.514 366.985,183.114 366.500 C 182.379 365.608,179.696 365.878,179.130 366.900 M196.286 366.248 C 196.129 366.405,196.000 370.103,196.000 374.467 L 196.000 382.400 197.608 382.400 L 199.217 382.400 199.108 374.300 L 199.000 366.200 197.786 366.081 C 197.118 366.016,196.443 366.091,196.286 366.248 M207.486 366.248 C 207.329 366.405,207.200 370.103,207.200 374.467 L 207.200 382.400 208.800 382.400 L 210.400 382.400 210.400 379.200 C 210.400 375.026,210.536 375.064,214.953 380.500 C 216.368 382.242,216.642 382.400,218.248 382.400 C 220.551 382.400,220.507 382.249,217.006 378.126 C 213.894 374.462,213.667 374.008,214.502 373.129 C 214.778 372.838,215.813 371.610,216.802 370.400 C 217.791 369.190,218.909 367.858,219.286 367.439 C 220.186 366.442,219.858 366.000,218.221 366.000 C 216.703 366.000,216.037 366.515,213.566 369.600 C 210.386 373.570,210.487 373.588,210.309 369.000 C 210.201 366.230,208.835 364.898,207.486 366.248 M232.493 366.500 C 232.270 366.775,231.809 367.810,231.469 368.800 C 230.008 373.053,228.718 376.656,228.392 377.400 C 228.001 378.289,226.800 381.922,226.800 382.214 C 226.800 383.418,230.082 382.212,230.647 380.800 L 231.287 379.200 234.400 379.200 L 237.513 379.200 238.153 380.800 C 238.708 382.186,242.000 383.429,242.000 382.252 C 242.000 381.949,240.421 377.286,239.205 374.000 C 238.513 372.130,237.670 369.790,237.330 368.800 C 236.485 366.336,236.133 366.000,234.400 366.000 C 233.574 366.000,232.716 366.225,232.493 366.500 M182.324 372.953 C 183.600 376.672,183.563 376.800,181.200 376.800 C 179.624 376.800,179.200 376.663,179.200 376.153 C 179.200 375.267,180.892 370.400,181.200 370.400 C 181.336 370.400,181.842 371.549,182.324 372.953 M235.636 373.221 C 236.761 376.667,236.715 376.800,234.400 376.800 C 231.911 376.800,231.929 376.971,233.823 371.267 C 234.165 370.237,234.931 371.062,235.636 373.221 " stroke="none" fill="#e8a163" fill-rule="evenodd"></path><path id="path1" d="M0.000 200.000 L 0.000 400.000 200.000 400.000 L 400.000 400.000 400.000 200.000 L 400.000 0.000 200.000 0.000 L 0.000 0.000 0.000 200.000 M204.144 46.678 C 204.297 46.830,206.622 47.006,209.311 47.069 C 222.305 47.370,230.779 48.270,233.775 49.666 C 234.641 50.070,235.491 50.400,235.663 50.400 C 235.835 50.400,236.988 50.863,238.224 51.428 C 240.320 52.387,240.505 52.410,240.973 51.769 C 241.348 51.257,241.769 51.154,242.637 51.366 C 243.277 51.521,244.340 51.743,245.000 51.858 C 245.660 51.973,246.740 52.304,247.400 52.593 C 249.218 53.389,253.600 55.060,255.400 55.644 C 256.280 55.929,257.216 56.418,257.480 56.730 C 257.781 57.086,258.323 57.206,258.938 57.051 C 260.019 56.780,262.800 57.771,262.800 58.427 C 262.800 58.657,263.827 59.298,265.082 59.853 C 266.337 60.408,267.822 61.182,268.382 61.573 C 268.942 61.964,269.940 62.414,270.600 62.573 C 271.260 62.732,272.981 63.640,274.424 64.590 C 275.867 65.539,277.937 66.617,279.024 66.984 C 280.111 67.352,281.450 68.070,282.000 68.581 C 282.550 69.092,283.389 69.627,283.865 69.771 C 284.341 69.914,285.413 70.574,286.247 71.238 C 287.082 71.901,288.854 72.948,290.186 73.564 C 291.517 74.180,292.852 74.980,293.152 75.342 C 293.452 75.704,293.864 76.000,294.067 76.000 C 294.270 76.000,295.805 76.945,297.479 78.100 C 299.152 79.255,301.407 80.812,302.489 81.560 C 307.215 84.828,322.400 101.160,322.400 102.976 C 322.400 103.325,323.222 104.373,324.227 105.305 C 325.233 106.237,326.512 107.450,327.072 108.000 C 328.585 109.488,332.951 116.474,335.072 120.800 C 336.097 122.890,337.345 125.230,337.846 126.000 C 338.346 126.770,339.057 128.300,339.424 129.400 C 339.792 130.500,340.792 132.903,341.646 134.740 C 342.501 136.577,343.200 138.154,343.200 138.244 C 343.200 138.335,343.578 139.262,344.040 140.304 C 344.502 141.347,345.033 142.560,345.220 143.000 C 345.905 144.612,346.868 147.850,347.230 149.756 C 347.434 150.832,347.888 151.922,348.239 152.179 C 349.076 152.791,350.042 156.254,350.420 160.000 C 350.791 163.683,351.345 166.211,351.937 166.924 C 352.360 167.434,352.812 169.873,353.654 176.200 C 354.031 179.034,354.593 190.344,355.043 204.171 C 355.338 213.255,354.725 218.267,352.538 224.639 C 352.002 226.200,351.395 228.990,351.189 230.839 C 350.510 236.925,349.811 240.307,348.715 242.806 C 348.379 243.573,347.880 245.010,347.606 246.000 C 347.043 248.036,346.979 248.202,345.058 252.600 C 344.289 254.360,342.749 258.092,341.635 260.894 C 339.292 266.787,336.666 272.249,335.622 273.400 C 335.222 273.840,334.510 275.087,334.039 276.170 C 333.002 278.556,329.098 284.868,327.465 286.800 C 326.814 287.570,325.329 289.230,324.164 290.489 C 323.000 291.748,321.695 293.575,321.264 294.549 C 320.676 295.879,319.999 296.594,318.540 297.427 C 317.473 298.037,316.284 298.804,315.897 299.132 C 315.511 299.460,314.791 299.929,314.297 300.175 C 313.804 300.420,313.345 301.002,313.278 301.469 C 313.210 301.936,312.807 302.409,312.382 302.521 C 311.957 302.632,311.446 303.152,311.246 303.678 C 311.047 304.203,310.595 304.873,310.242 305.165 C 309.889 305.458,309.600 305.907,309.600 306.163 C 309.600 307.217,294.014 320.430,290.845 322.062 C 290.270 322.358,288.090 323.660,286.000 324.955 C 280.596 328.305,279.671 328.800,278.820 328.800 C 278.404 328.800,276.612 329.700,274.839 330.800 C 273.065 331.900,271.474 332.800,271.303 332.800 C 271.132 332.800,270.544 333.205,269.996 333.700 C 268.782 334.797,263.197 337.600,262.224 337.600 C 261.838 337.600,259.874 338.389,257.861 339.353 C 255.847 340.317,252.598 341.872,250.641 342.808 C 246.479 344.799,245.243 345.165,241.200 345.600 C 239.550 345.777,237.660 346.150,237.000 346.427 C 236.340 346.705,234.630 347.272,233.200 347.688 C 229.034 348.899,228.089 349.174,226.500 349.639 C 221.707 351.044,213.129 352.678,210.200 352.746 C 208.880 352.776,206.754 352.910,205.475 353.043 C 203.552 353.243,203.063 353.165,202.645 352.594 C 202.178 351.956,201.933 351.948,199.370 352.490 C 196.398 353.118,184.844 352.871,179.000 352.054 C 177.460 351.838,174.760 351.467,173.000 351.228 C 171.240 350.989,168.990 350.604,168.000 350.371 C 167.010 350.138,164.850 349.781,163.200 349.577 C 161.550 349.374,158.832 348.936,157.160 348.604 C 155.488 348.272,153.739 348.000,153.274 348.000 C 152.809 348.000,152.253 347.674,152.040 347.275 C 151.646 346.539,148.519 345.600,146.464 345.600 C 145.410 345.600,142.782 344.738,140.000 343.480 C 139.230 343.132,137.520 342.535,136.200 342.153 C 134.880 341.771,133.080 340.984,132.200 340.403 C 130.290 339.142,128.497 338.295,125.814 337.384 C 120.589 335.611,114.308 332.128,113.528 330.572 C 112.853 329.225,108.400 326.644,108.400 327.600 C 108.400 327.820,108.670 328.000,109.000 328.000 C 109.330 328.000,109.600 328.180,109.600 328.400 C 109.600 328.980,108.724 328.868,107.802 328.171 C 107.112 327.650,107.085 327.511,107.602 327.146 C 108.099 326.796,108.079 326.764,107.484 326.956 C 106.604 327.240,102.723 324.751,102.031 323.458 C 101.765 322.960,101.131 322.294,100.624 321.976 C 100.116 321.659,98.283 320.075,96.551 318.456 C 94.818 316.837,92.770 315.217,92.000 314.856 C 91.230 314.495,89.896 313.525,89.036 312.700 C 88.176 311.875,87.318 311.200,87.130 311.200 C 86.941 311.200,85.995 310.435,85.028 309.500 C 84.061 308.565,82.534 307.125,81.635 306.300 C 80.736 305.475,80.000 304.429,80.000 303.977 C 80.000 302.981,77.687 300.000,76.915 300.000 C 75.824 300.000,69.600 291.721,69.600 290.269 C 69.600 289.961,69.240 289.250,68.800 288.691 C 68.360 288.131,68.000 287.334,68.000 286.920 C 68.000 286.505,67.100 285.101,66.000 283.800 C 64.900 282.499,64.000 281.258,64.000 281.043 C 64.000 280.828,63.661 280.280,63.246 279.826 C 62.565 279.080,60.345 275.136,58.308 271.054 C 57.862 270.159,57.633 269.122,57.766 268.593 C 58.147 267.074,57.581 265.321,56.179 263.684 C 54.420 261.628,51.200 255.324,51.200 253.934 C 51.200 252.832,50.110 247.976,49.015 244.200 C 46.634 235.993,46.284 234.361,46.140 230.800 C 46.056 228.710,45.837 225.290,45.653 223.200 C 45.438 220.753,45.520 215.484,45.883 208.400 C 46.499 196.375,47.067 191.784,48.804 184.800 C 49.050 183.810,49.586 181.101,49.994 178.780 C 50.402 176.459,51.120 173.489,51.588 172.180 C 52.056 170.871,52.620 169.080,52.840 168.200 C 53.061 167.320,53.667 165.970,54.187 165.200 C 54.708 164.430,55.317 163.115,55.541 162.278 C 56.003 160.548,58.700 156.800,59.482 156.800 C 60.067 156.800,60.174 157.645,59.661 158.220 C 59.475 158.429,58.724 160.130,57.992 162.000 C 57.261 163.870,56.153 166.467,55.531 167.771 C 54.909 169.075,54.400 170.326,54.400 170.552 C 54.400 170.954,52.640 176.838,51.214 181.200 C 50.498 183.391,49.836 187.016,49.388 191.200 C 49.117 193.722,48.638 196.749,47.962 200.200 C 47.421 202.968,47.452 209.223,48.044 216.400 C 48.271 219.150,48.499 223.290,48.552 225.600 C 48.639 229.400,48.894 231.129,50.035 235.646 C 50.236 236.442,50.400 237.646,50.400 238.323 C 50.400 238.999,50.580 239.664,50.800 239.800 C 51.020 239.936,51.200 240.568,51.200 241.205 C 51.200 241.841,51.360 242.776,51.556 243.281 C 51.752 243.787,52.314 245.550,52.804 247.200 C 53.294 248.850,53.851 250.560,54.040 251.000 C 54.230 251.440,54.366 252.340,54.343 253.000 C 54.319 253.660,54.753 255.190,55.306 256.400 C 55.859 257.610,56.646 259.747,57.056 261.148 C 57.529 262.770,58.273 264.198,59.099 265.076 C 59.814 265.835,60.520 266.937,60.667 267.525 C 60.990 268.813,62.867 272.059,64.432 274.038 C 65.058 274.830,65.972 276.765,66.464 278.340 C 67.302 281.023,70.701 286.225,73.629 289.305 C 74.097 289.797,75.166 291.190,76.005 292.400 C 77.268 294.223,79.660 296.871,85.790 303.234 C 86.125 303.582,86.400 304.015,86.400 304.197 C 86.400 305.146,89.819 308.800,91.502 309.650 C 93.161 310.487,94.821 311.702,100.993 316.600 C 101.825 317.260,103.994 318.880,105.814 320.200 C 107.634 321.520,109.957 323.230,110.977 324.000 C 113.269 325.731,117.136 327.939,121.600 330.064 C 123.470 330.955,125.270 331.908,125.600 332.183 C 126.431 332.875,133.029 335.635,137.587 337.198 C 139.670 337.912,141.763 338.751,142.238 339.062 C 143.205 339.695,144.515 340.131,148.600 341.177 C 150.140 341.571,152.097 342.188,152.949 342.547 C 153.801 342.906,155.074 343.200,155.779 343.200 C 156.484 343.200,158.307 343.631,159.830 344.157 C 161.354 344.684,163.410 345.234,164.400 345.380 C 165.390 345.525,167.302 345.907,168.648 346.228 C 169.995 346.549,172.605 346.980,174.448 347.187 C 176.292 347.393,178.790 347.671,180.000 347.805 C 187.819 348.668,212.996 347.906,218.600 346.638 C 219.040 346.538,220.480 346.265,221.800 346.030 C 228.900 344.768,232.292 343.962,238.400 342.084 C 239.830 341.645,241.852 341.180,242.893 341.051 C 244.096 340.902,245.555 340.308,246.893 339.421 C 248.052 338.653,250.440 337.499,252.200 336.858 C 262.277 333.186,275.234 327.098,279.662 323.954 C 280.246 323.539,280.854 323.200,281.015 323.200 C 281.303 323.200,288.987 317.822,289.848 317.018 C 291.366 315.599,294.495 313.009,296.268 311.704 C 298.091 310.363,307.583 301.859,311.566 298.000 C 314.049 295.595,317.598 291.529,320.124 288.200 C 321.458 286.440,323.192 284.259,323.975 283.354 C 325.333 281.786,325.763 281.086,328.480 276.009 C 329.125 274.804,329.802 273.634,329.984 273.409 C 330.166 273.184,330.670 272.370,331.104 271.600 C 331.538 270.830,332.840 268.670,333.997 266.800 C 336.277 263.114,340.000 255.797,340.000 255.001 C 340.000 254.730,340.360 254.050,340.800 253.491 C 341.240 252.931,341.600 252.037,341.600 251.503 C 341.600 250.969,341.963 249.377,342.406 247.966 C 342.849 246.555,343.408 244.680,343.647 243.800 C 343.887 242.920,344.245 241.787,344.442 241.281 C 344.639 240.776,344.800 240.068,344.800 239.707 C 344.800 239.122,345.836 236.565,346.822 234.716 C 347.023 234.340,347.095 233.793,346.983 233.500 C 346.871 233.208,347.156 231.176,347.616 228.985 C 348.076 226.793,348.601 224.280,348.783 223.400 C 348.964 222.520,349.320 220.810,349.575 219.600 C 349.829 218.390,350.008 215.870,349.973 214.000 C 349.834 206.552,350.399 187.950,350.786 187.227 C 351.245 186.369,350.951 184.205,350.212 183.000 C 349.942 182.560,349.611 181.390,349.477 180.400 C 349.039 177.154,348.451 173.439,348.021 171.200 C 347.789 169.990,347.331 167.290,347.003 165.200 C 346.144 159.720,345.048 155.227,344.159 153.538 C 343.852 152.954,343.600 152.007,343.600 151.432 C 343.600 150.858,342.970 148.826,342.200 146.916 C 341.430 145.007,340.800 143.170,340.800 142.834 C 340.800 141.592,339.048 136.573,338.336 135.774 C 337.931 135.320,337.599 134.600,337.598 134.174 C 337.597 133.748,337.152 132.680,336.610 131.800 C 336.068 130.920,335.619 129.949,335.612 129.641 C 335.606 129.334,334.975 128.319,334.210 127.386 C 333.023 125.937,331.427 122.864,328.274 115.955 C 327.911 115.160,327.340 114.282,327.005 114.004 C 326.670 113.726,325.361 112.069,324.098 110.323 C 320.199 104.937,319.012 103.353,316.604 100.324 C 313.545 96.479,302.169 85.338,300.463 84.517 C 299.728 84.163,298.198 83.040,297.063 82.021 C 293.023 78.392,288.094 75.085,283.139 72.678 C 281.895 72.073,280.776 71.314,280.651 70.990 C 280.527 70.665,280.104 70.400,279.713 70.401 C 279.091 70.402,277.350 69.674,274.600 68.263 C 267.965 64.860,262.241 62.040,260.800 61.466 C 259.810 61.071,258.550 60.509,258.000 60.217 C 257.450 59.925,255.875 59.373,254.500 58.991 C 253.125 58.608,252.000 58.154,252.000 57.982 C 252.000 57.610,247.971 56.320,244.600 55.612 C 243.280 55.335,241.660 54.969,241.000 54.800 C 240.340 54.631,238.720 54.272,237.400 54.004 C 236.080 53.736,234.640 53.370,234.200 53.192 C 232.268 52.410,229.616 51.879,227.309 51.812 C 225.545 51.761,224.584 51.529,224.019 51.017 C 223.322 50.386,222.775 50.330,219.694 50.571 C 217.037 50.779,215.727 50.700,214.383 50.253 C 211.114 49.163,207.637 48.649,206.679 49.113 C 204.694 50.074,194.911 50.106,193.626 49.156 C 192.231 48.125,189.306 47.966,188.635 48.885 C 188.396 49.212,187.300 49.589,186.200 49.723 C 185.100 49.857,182.850 50.168,181.200 50.413 C 179.550 50.659,177.210 50.997,176.000 51.165 C 174.790 51.332,172.990 51.766,172.000 52.129 C 171.010 52.492,169.197 52.791,167.972 52.794 C 166.098 52.799,165.606 52.959,164.875 53.800 C 164.166 54.615,163.639 54.800,162.026 54.800 C 160.922 54.800,158.823 55.242,157.275 55.800 C 155.751 56.350,154.114 56.800,153.638 56.800 C 153.161 56.800,152.328 57.091,151.785 57.446 C 151.230 57.810,150.418 57.993,149.927 57.865 C 149.011 57.626,145.307 59.413,143.774 60.834 C 143.320 61.255,142.626 61.600,142.231 61.600 C 140.660 61.600,130.550 67.084,129.038 68.757 C 128.619 69.221,128.029 69.600,127.728 69.600 C 127.427 69.600,126.040 70.320,124.647 71.200 C 123.254 72.080,121.942 72.800,121.732 72.800 C 121.522 72.800,120.821 73.360,120.175 74.045 C 119.529 74.730,118.322 75.724,117.493 76.254 C 115.640 77.440,106.258 86.725,106.147 87.484 C 106.102 87.786,105.601 88.399,105.033 88.846 C 104.465 89.292,103.996 89.870,103.991 90.129 C 103.986 90.388,103.619 91.050,103.175 91.600 C 101.564 93.595,99.200 97.167,99.200 97.606 C 99.200 98.472,96.755 101.600,96.078 101.600 C 93.232 101.600,96.026 92.810,99.355 91.293 C 99.864 91.061,101.099 89.640,102.100 88.136 C 103.100 86.631,105.553 83.780,107.550 81.800 C 109.548 79.820,111.186 77.996,111.191 77.746 C 111.209 76.825,117.920 71.200,119.000 71.200 C 119.439 71.200,124.160 67.895,125.956 66.330 C 126.922 65.489,127.968 64.800,128.280 64.800 C 128.592 64.800,129.511 64.268,130.323 63.617 C 131.136 62.967,133.060 61.875,134.600 61.192 C 136.140 60.508,137.940 59.704,138.600 59.405 C 142.517 57.633,153.015 53.778,156.700 52.759 C 157.415 52.562,158.585 52.236,159.300 52.035 C 162.287 51.195,165.134 50.493,167.200 50.086 C 168.410 49.847,170.359 49.460,171.531 49.226 C 172.702 48.992,174.302 48.800,175.084 48.800 C 175.867 48.800,177.699 48.610,179.154 48.379 C 180.609 48.147,183.060 47.776,184.600 47.555 C 186.140 47.333,188.120 47.005,189.000 46.824 C 190.975 46.419,203.762 46.295,204.144 46.678 M148.400 78.704 C 148.400 78.871,148.040 79.232,147.600 79.507 C 146.724 80.054,146.515 79.645,147.280 78.880 C 147.822 78.338,148.400 78.247,148.400 78.704 M139.200 83.536 C 139.200 83.721,138.480 84.110,137.600 84.400 C 136.720 84.690,136.000 85.058,136.000 85.217 C 136.000 85.376,135.685 85.618,135.300 85.754 C 134.915 85.889,134.375 86.105,134.100 86.234 C 133.825 86.362,133.600 86.293,133.600 86.080 C 133.600 85.867,133.915 85.590,134.300 85.464 C 134.685 85.337,135.720 84.789,136.600 84.245 C 138.264 83.216,139.200 82.961,139.200 83.536 M127.600 89.126 C 127.600 89.473,124.571 91.200,123.962 91.200 C 123.191 91.200,123.658 90.438,124.900 89.670 C 126.252 88.834,127.600 88.562,127.600 89.126 M121.985 91.500 C 121.977 91.665,121.281 92.340,120.439 93.000 C 119.597 93.660,117.129 95.654,114.954 97.430 C 112.779 99.207,109.290 101.805,107.200 103.205 C 105.110 104.605,103.198 105.941,102.952 106.175 C 102.330 106.766,97.256 111.324,95.800 112.600 C 93.843 114.316,91.299 116.000,90.663 116.000 C 89.994 116.000,85.401 120.857,84.589 122.423 C 84.298 122.985,82.852 124.605,81.377 126.023 C 79.901 127.440,77.985 129.320,77.119 130.200 C 75.110 132.240,71.200 137.365,71.200 137.959 C 71.200 138.726,69.439 141.184,68.720 141.419 C 68.048 141.639,67.918 141.910,67.416 144.153 C 67.274 144.787,66.403 146.382,65.479 147.697 C 62.867 151.418,61.666 153.355,61.631 153.900 C 61.602 154.366,59.600 154.651,59.600 154.190 C 59.600 153.575,64.155 145.341,65.189 144.087 C 65.855 143.279,66.400 142.389,66.400 142.109 C 66.400 141.829,66.653 141.600,66.963 141.600 C 67.506 141.600,71.200 136.259,71.200 135.474 C 71.200 135.060,74.223 131.569,80.616 124.600 C 82.836 122.180,85.027 119.660,85.486 119.000 C 85.945 118.340,87.708 116.720,89.404 115.400 C 91.101 114.080,93.342 112.235,94.386 111.300 C 95.429 110.365,96.480 109.600,96.722 109.600 C 96.963 109.600,97.304 109.375,97.480 109.099 C 97.656 108.824,99.150 107.520,100.800 106.203 C 102.450 104.886,104.739 103.012,105.887 102.039 C 107.035 101.066,108.824 99.984,109.863 99.635 C 111.146 99.203,111.951 98.636,112.375 97.864 C 113.354 96.086,122.043 90.331,121.985 91.500 M215.037 94.418 C 219.248 96.777,222.120 100.506,224.419 106.600 C 227.684 115.257,223.416 124.795,216.275 124.799 C 203.708 124.805,195.448 103.097,204.930 94.981 C 207.327 92.930,211.922 92.674,215.037 94.418 M244.304 105.690 C 254.078 110.281,255.967 128.526,247.242 134.059 C 242.689 136.947,236.306 134.077,233.393 127.832 C 227.348 114.875,234.211 100.949,244.304 105.690 M188.040 110.833 C 197.591 113.872,205.023 124.823,202.730 132.477 C 200.013 141.546,186.001 139.792,178.628 129.460 C 170.771 118.450,176.479 107.154,188.040 110.833 M233.440 137.953 C 234.078 138.148,235.410 138.529,236.400 138.801 C 244.243 140.953,254.140 146.134,258.220 150.224 C 264.528 156.546,261.372 164.303,251.800 166.001 C 237.859 168.474,236.163 169.481,228.057 180.102 C 220.516 189.981,211.516 189.155,208.287 178.288 C 206.424 172.019,206.260 170.820,206.274 163.567 C 206.298 150.618,210.878 142.439,220.266 138.579 C 222.772 137.548,230.852 137.165,233.440 137.953 M189.223 144.865 C 201.421 149.822,205.647 163.743,196.006 167.211 C 182.494 172.070,165.721 152.587,176.885 145.000 C 179.346 143.328,185.281 143.263,189.223 144.865 M178.702 220.160 C 191.521 226.726,192.268 250.392,179.656 250.399 C 171.364 250.403,164.667 241.758,164.628 231.000 C 164.592 221.040,170.912 216.171,178.702 220.160 M207.800 231.343 C 211.102 232.888,213.442 235.945,215.653 241.600 C 216.677 244.220,216.354 251.787,215.107 254.414 C 211.688 261.612,205.535 262.939,199.922 257.688 C 189.168 247.629,195.727 225.696,207.800 231.343 M151.951 236.621 C 163.688 240.709,170.489 254.819,164.054 261.733 C 159.208 266.940,147.394 263.076,141.638 254.400 C 139.092 250.563,138.400 248.602,138.400 245.230 C 138.400 237.900,144.498 234.026,151.951 236.621 M198.800 264.160 C 217.461 269.296,228.648 279.402,223.793 286.738 C 221.601 290.052,219.308 291.073,211.000 292.435 C 202.431 293.840,198.841 296.261,191.824 305.369 C 180.622 319.910,169.644 311.920,169.608 289.200 C 169.577 270.091,181.911 259.512,198.800 264.160 M149.400 269.596 C 159.585 271.258,167.883 282.981,163.627 289.693 C 159.096 296.837,143.620 293.227,138.715 283.882 C 133.761 274.444,138.693 267.849,149.400 269.596 M162.000 372.681 C 162.225 379.985,162.192 379.909,165.200 380.077 C 167.247 380.191,167.400 380.269,167.400 381.200 L 167.400 382.200 163.200 382.200 L 159.000 382.200 158.891 374.612 C 158.765 365.848,158.754 365.906,160.497 366.074 L 161.800 366.200 162.000 372.681 M183.114 366.500 C 183.514 366.985,184.472 369.479,185.995 374.000 C 186.403 375.210,187.200 377.459,187.768 378.998 C 189.084 382.566,189.103 382.468,187.100 382.323 C 185.550 382.211,185.360 382.076,184.948 380.800 L 184.495 379.400 181.200 379.400 L 177.905 379.400 177.452 380.800 C 177.040 382.076,176.850 382.211,175.300 382.323 C 173.296 382.468,173.315 382.565,174.636 378.998 C 175.206 377.459,175.825 375.750,176.010 375.200 C 178.941 366.524,179.235 366.000,181.165 366.000 C 182.010 366.000,182.888 366.225,183.114 366.500 M199.108 374.300 L 199.217 382.400 197.608 382.400 L 196.000 382.400 196.000 374.467 C 196.000 365.878,195.994 365.906,197.786 366.081 L 199.000 366.200 199.108 374.300 M210.309 369.000 C 210.487 373.588,210.386 373.570,213.566 369.600 C 216.037 366.515,216.703 366.000,218.221 366.000 C 219.858 366.000,220.186 366.442,219.286 367.439 C 218.909 367.858,217.791 369.190,216.802 370.400 C 215.813 371.610,214.778 372.838,214.502 373.129 C 213.667 374.008,213.894 374.462,217.006 378.126 C 220.507 382.249,220.551 382.400,218.248 382.400 C 216.642 382.400,216.368 382.242,214.953 380.500 C 210.536 375.064,210.400 375.026,210.400 379.200 L 210.400 382.400 208.800 382.400 L 207.200 382.400 207.200 374.467 C 207.200 365.878,207.194 365.906,208.986 366.081 C 210.199 366.200,210.200 366.202,210.309 369.000 M236.307 366.500 C 236.530 366.775,236.991 367.810,237.330 368.800 C 237.670 369.790,238.513 372.130,239.205 374.000 C 240.421 377.286,242.000 381.949,242.000 382.252 C 242.000 383.429,238.708 382.186,238.153 380.800 L 237.513 379.200 234.400 379.200 L 231.287 379.200 230.647 380.800 C 230.082 382.212,226.800 383.418,226.800 382.214 C 226.800 381.922,228.001 378.289,228.392 377.400 C 228.718 376.656,230.008 373.053,231.469 368.800 C 232.315 366.336,232.667 366.000,234.400 366.000 C 235.226 366.000,236.084 366.225,236.307 366.500 M180.076 372.953 C 178.800 376.672,178.837 376.800,181.200 376.800 C 182.776 376.800,183.200 376.663,183.200 376.153 C 183.200 375.267,181.508 370.400,181.200 370.400 C 181.064 370.400,180.558 371.549,180.076 372.953 M233.823 371.267 C 231.929 376.971,231.911 376.800,234.400 376.800 C 236.715 376.800,236.761 376.667,235.636 373.221 C 234.931 371.062,234.165 370.237,233.823 371.267 " stroke="none" fill="#0c1c2c" fill-rule="evenodd"></path></g></svg>